<svg width="32" height="29" viewBox="0 0 32 29" fill="none" xmlns="http://www.w3.org/2000/svg">
<path fill-rule="evenodd" clip-rule="evenodd" d="M21.3336 5.53291C22.6666 5.53291 23.7337 4.47778 23.7337 3.15931C23.7337 1.84039 22.6666 0.785706 21.3336 0.785706C20.0002 0.785706 18.9336 1.84039 18.9336 3.15931C18.9336 4.47778 20.0002 5.53291 21.3336 5.53291ZM25.3336 15.0273C21.6001 15.0273 18.6667 17.9285 18.6667 21.621C18.6667 25.3131 21.6001 28.2143 25.3336 28.2143C29.0666 28.2143 32 25.3131 32 21.621C32 17.9285 29.0666 15.0273 25.3336 15.0273ZM25.3336 26.2366C22.8003 26.2366 20.6667 24.1263 20.6667 21.621C20.6667 19.1153 22.8003 17.0055 25.3336 17.0055C27.8668 17.0055 30 19.1153 30 21.621C30 24.1263 27.8668 26.2366 25.3336 26.2366ZM19.7333 12.3899H25.3336V10.0163H21.0668L18.5335 5.66458C18.1334 5.0058 17.4669 4.6099 16.5335 4.6099C15.867 4.6099 15.3337 4.87368 14.9336 5.26913L10.0003 10.1485C9.60023 10.5439 9.33335 11.0715 9.33335 11.7307C9.33335 12.5221 9.73344 13.3134 10.3999 13.7089L14.9336 16.3463V22.9395H17.3337V14.3681L14.4003 12.1262L17.4669 9.09332L19.7333 12.3899ZM6.66688 15.0273C2.93335 15.0273 0 17.9285 0 21.621C0 25.3131 2.93335 28.2143 6.66688 28.2143C10.3999 28.2143 13.3333 25.3131 13.3333 21.621C13.3333 17.9285 10.3999 15.0273 6.66688 15.0273ZM6.66688 26.2366C4.13361 26.2366 1.99997 24.1263 1.99997 21.621C1.99997 19.1153 4.13361 17.0055 6.66688 17.0055C9.20014 17.0055 11.3333 19.1153 11.3333 21.621C11.3333 24.1263 9.20014 26.2366 6.66688 26.2366Z" fill="#DB9C3D"/>
</svg>
